<svg width="73" height="91" viewBox="0 0 73 91" fill="none" xmlns="http://www.w3.org/2000/svg">
<path d="M66.648 36.728C64.2829 40.0718 64.6493 48.0019 67.3246 51.1031C67.6686 51.5018 67.9977 51.9155 68.312 52.344C71.2133 56.184 72.664 60.8773 72.664 66.424C72.664 74.104 69.8907 80.12 64.344 84.472C58.8827 88.824 51.3307 91 41.688 91H8.664C6.18933 91 4.22666 90.3174 2.776 88.952C1.41066 87.5867 0.727997 85.6667 0.727997 83.192V8.56801C0.727997 6.09334 1.41066 4.17334 2.776 2.80801C4.22666 1.44268 6.18933 0.76001 8.664 0.76001H40.408C49.7947 0.76001 57.1333 2.85068 62.424 7.03201C67.8 11.128 70.488 16.888 70.488 24.312C70.488 29.0907 69.208 33.2293 66.648 36.728V36.728ZM16.856 33.776C16.856 36.5374 19.0946 38.776 21.856 38.776H37.72C49.0693 38.776 54.744 34.552 54.744 26.104C54.744 21.8373 53.336 18.68 50.52 16.632C47.704 14.584 43.4373 13.56 37.72 13.56H21.856C19.0946 13.56 16.856 15.7986 16.856 18.56V33.776ZM39.896 78.2C45.8693 78.2 50.2213 77.1333 52.952 75C55.6827 72.8667 57.048 69.5387 57.048 65.016C57.048 60.4933 55.64 57.1227 52.824 54.904C50.0933 52.6853 45.784 51.576 39.896 51.576H21.856C19.0946 51.576 16.856 53.8146 16.856 56.576V73.2C16.856 75.9614 19.0946 78.2 21.856 78.2H39.896Z" fill="#8800FF"/>
</svg>
